<svg width="319" height="319" viewBox="0 0 319 319" fill="none" xmlns="http://www.w3.org/2000/svg">
<path d="M238.924 238.924C282.909 194.94 282.909 123.626 238.924 79.6415C194.94 35.6568 123.626 35.6568 79.6414 79.6415C35.6567 123.626 35.6567 194.94 79.6414 238.924C123.626 282.909 194.94 282.909 238.924 238.924Z" fill="#EAE5DF"/>
<path d="M210.199 182.946C207.199 170.696 184.589 141.646 180.129 137.556C177.129 134.806 159.499 139.396 159.499 139.396L126.549 150.396C126.549 150.396 103.949 161.226 102.949 165.226C101.949 169.226 115.449 220.226 124.329 235.976C133.209 251.726 133.229 257.726 132.589 262.226C132.198 264.288 131.698 266.328 131.089 268.336C158.815 275.491 188.223 271.841 213.359 258.126C211.889 251.436 210.589 245.866 210.499 243.946C210.199 238.446 213.199 195.196 210.199 182.946Z" fill="#969269"/>
<path d="M122.689 132.806C122.689 132.806 128.229 138.866 126.549 150.366C126.549 150.366 141.899 164.036 154.739 157.536C164.819 152.426 159.499 139.396 159.499 139.396C159.499 139.396 154.809 134.666 152.169 123.856L122.689 132.806Z" fill="#BA6E4D"/>
<path d="M154.279 130.466C153.417 128.317 152.712 126.108 152.169 123.856L122.689 132.806C123.444 133.724 124.082 134.732 124.589 135.806C130.379 138.036 139.299 140.446 146.039 137.546C150.709 135.516 153.089 132.846 154.279 130.466Z" fill="#AA5044"/>
<path d="M85.6992 99.8463C88.6992 105.956 86.1992 113.846 79.6992 117.536C73.1992 121.226 69.2292 116.936 69.2292 116.936C66.2292 121.846 57.3992 127.196 48.3992 122.656C39.3992 118.116 40.7292 106.866 40.7292 106.866C34.8992 108.196 26.3992 103.196 25.0692 93.0363C23.7392 82.8763 30.5692 80.5363 30.5692 80.5363C28.8992 69.5363 38.5692 71.1963 38.5692 71.1963C38.5692 71.1963 36.7392 60.4363 50.5692 56.1963C63.8992 52.1163 70.0692 63.5963 70.0692 63.5963C72.1547 62.2562 74.6244 61.6425 77.0946 61.8505C79.5648 62.0584 81.8971 63.0764 83.7292 64.7463C90.4992 70.6663 82.7292 82.8463 82.7292 82.8463L85.6992 99.8463Z" fill="#231012"/>
<path d="M38.299 71.2663C38.5018 71.9141 38.8392 72.5117 39.2889 73.0201C39.7387 73.5285 40.2908 73.9361 40.909 74.2163C41.909 74.7363 43.539 74.9163 44.099 73.6463C44.3249 73.1255 44.4176 72.5566 44.3688 71.9909C44.3199 71.4253 44.131 70.8807 43.819 70.4063C43.6527 70.2089 43.4248 70.0731 43.1719 70.0209C42.9191 69.9687 42.656 70.0031 42.4251 70.1186C42.1942 70.234 42.0089 70.4238 41.8989 70.6574C41.789 70.891 41.7608 71.1548 41.819 71.4063C42.139 74.2163 46.949 76.1063 48.129 72.9063C48.449 72.0263 48.009 70.2263 46.949 69.9663C45.889 69.7063 46.009 71.6363 46.309 72.1963C47.419 74.2663 51.839 75.3263 53.229 73.0463C53.2635 72.9893 53.2739 72.9209 53.258 72.8562C53.242 72.7915 53.201 72.7358 53.144 72.7013C53.087 72.6669 53.0186 72.6565 52.9539 72.6724C52.8892 72.6883 52.8335 72.7293 52.799 72.7863C51.799 74.3563 49.239 73.7863 47.939 73.0763C47.5581 72.9108 47.2284 72.6464 46.984 72.3106C46.7396 71.9747 46.5894 71.5797 46.549 71.1663C46.549 70.8163 46.639 70.2363 47.059 70.6063C47.409 70.9604 47.6398 71.4148 47.719 71.9063C47.7491 72.1975 47.7149 72.4917 47.6189 72.7682C47.5229 73.0447 47.3673 73.2967 47.1632 73.5065C46.9591 73.7164 46.7115 73.8788 46.4378 73.9825C46.164 74.0861 45.8709 74.1284 45.579 74.1063C45.0274 74.0541 44.4942 73.881 44.0171 73.5993C43.5401 73.3176 43.131 72.9341 42.819 72.4763C42.4713 72.0837 42.2917 71.5701 42.319 71.0463C42.346 70.9258 42.4079 70.8159 42.4969 70.7302C42.5859 70.6446 42.6981 70.587 42.8196 70.5646C42.9411 70.5422 43.0665 70.5561 43.1802 70.6044C43.2938 70.6527 43.3908 70.7334 43.459 70.8363C43.6688 71.2012 43.7995 71.6061 43.8425 72.0247C43.8856 72.4434 43.8401 72.8664 43.709 73.2663C43.319 74.5663 41.789 74.2663 40.889 73.6863C40.3855 73.4322 39.9378 73.0802 39.5721 72.651C39.2064 72.2217 38.93 71.7238 38.759 71.1863C38.709 70.8663 38.219 71.0063 38.279 71.3163L38.299 71.2663Z" fill="#3A130E"/>
<path d="M76.0891 92.0764C74.7691 90.0764 71.8591 88.4764 69.4191 89.0164C67.6416 89.5544 66.0466 90.5716 64.8091 91.9564C64.0791 92.7064 62.6291 94.3764 63.7091 95.4064C64.5091 96.1664 66.5491 96.3364 66.7691 94.9564C66.9891 93.5764 65.8291 92.1564 64.7691 91.5064C62.8691 90.3864 60.5391 91.2264 59.1691 92.8064C57.6591 94.5464 57.2891 97.4164 59.6591 98.5764C60.2291 98.8564 61.1691 99.1664 61.7191 98.6864C62.2691 98.2064 61.8492 97.1864 61.4792 96.6864C60.2992 95.0964 58.5891 96.8764 57.8391 97.9464C57.2063 98.867 56.7173 99.8786 56.3891 100.946C56.0532 101.802 55.9767 102.738 56.1691 103.636C56.2591 103.946 56.7491 103.816 56.6491 103.506C56.2591 102.236 56.9492 100.646 57.5092 99.5064C58.0692 98.3664 58.9192 96.8064 60.1592 96.5864C60.7692 96.4764 61.1591 97.0164 61.3591 97.5164C61.4691 97.7764 61.6291 98.1764 61.3591 98.3664C61.0856 98.472 60.7827 98.472 60.5092 98.3664C60.1303 98.2793 59.7737 98.1144 59.462 97.8819C59.1504 97.6495 58.8906 97.3547 58.6991 97.0164C58.4689 96.4164 58.4069 95.765 58.5197 95.1324C58.6325 94.4997 58.9158 93.9099 59.3391 93.4264C60.4391 91.9864 62.4491 90.9664 64.2191 91.7764C64.7727 92.0219 65.2568 92.4006 65.6285 92.8787C66.0001 93.3568 66.2477 93.9194 66.3492 94.5164C66.3492 94.9064 66.3491 95.3164 65.8991 95.4364C65.6022 95.5 65.2953 95.5018 64.9977 95.4416C64.7 95.3814 64.418 95.2605 64.1691 95.0864C63.2791 94.3264 64.7591 92.8064 65.2691 92.2764C66.3967 91.0573 67.8038 90.1306 69.3691 89.5764C71.6291 88.9064 74.4891 90.4764 75.7191 92.3364C75.8991 92.6064 76.3291 92.3364 76.1591 92.0864L76.0891 92.0764Z" fill="#3A130E"/>
<path d="M40.9488 104.696C40.8461 105.703 40.4536 106.658 39.8188 107.446C39.3633 108.177 38.7768 108.818 38.0888 109.336C37.1401 109.95 36.08 110.371 34.9688 110.576C34.4987 110.706 33.9972 110.66 33.5588 110.446C33.3874 110.238 33.2856 109.981 33.2677 109.712C33.2498 109.443 33.3166 109.175 33.4588 108.946C33.7688 108.566 34.3488 109.096 34.5788 109.336C35.0716 109.849 35.3566 110.526 35.3788 111.236C35.3435 111.756 35.1832 112.259 34.9115 112.703C34.6399 113.147 34.265 113.518 33.8188 113.786C32.8162 114.369 31.646 114.594 30.4988 114.426C30.1788 114.426 30.1788 114.896 30.4988 114.926C31.6831 115.082 32.8865 114.862 33.9388 114.296C34.409 114.025 34.8191 113.661 35.144 113.226C35.469 112.791 35.7019 112.294 35.8288 111.766C35.8926 111.339 35.8716 110.904 35.7669 110.485C35.6623 110.067 35.476 109.673 35.2188 109.326C35.0549 109.049 34.8285 108.815 34.5576 108.641C34.2867 108.467 33.9789 108.36 33.6588 108.326C32.9688 108.326 32.7988 109.176 32.7888 109.736C32.7653 110.014 32.8338 110.292 32.9838 110.527C33.1338 110.762 33.357 110.941 33.6188 111.036C34.8988 111.486 36.6188 110.696 37.7388 110.116C38.5385 109.661 39.2228 109.028 39.7388 108.266C40.6439 107.273 41.2141 106.021 41.3688 104.686C41.3688 104.366 40.8788 104.366 40.8688 104.686L40.9488 104.696Z" fill="#231012"/>
<path d="M58.4391 59.6065C62.1891 58.2965 60.7591 53.0865 58.7091 50.8765C57.9791 50.0965 56.4291 49.3165 55.7991 50.6765C55.4891 51.3365 55.9891 51.9665 56.5091 52.3365C57.2524 52.8625 58.1658 53.0908 59.0691 52.9765C59.7029 52.8609 60.2865 52.555 60.742 52.0994C61.1976 51.6438 61.5035 51.0603 61.6191 50.4265C62.0191 48.6665 61.0491 46.9665 60.0891 45.5765C59.8991 45.3165 59.4691 45.5765 59.6491 45.8265C60.5306 46.8895 61.0739 48.1921 61.2091 49.5665C61.2349 50.1632 61.0772 50.7534 60.7571 51.2577C60.4371 51.7619 59.97 52.1559 59.4191 52.3865C58.6492 52.6062 57.8238 52.5165 57.1191 52.1365C56.6991 51.9165 55.9591 51.3865 56.2891 50.8265C56.8991 49.8265 58.1491 50.9565 58.5991 51.5165C59.472 52.6214 60.0315 53.9409 60.2191 55.3365C60.4291 56.9365 59.9291 58.5165 58.2991 59.0865C57.9991 59.1965 58.1291 59.6765 58.4391 59.5665V59.6065Z" fill="#231012"/>
<path d="M158.269 69.2663C160.609 75.6363 168.009 79.3663 175.179 77.2163C182.349 75.0663 182.019 69.2663 182.019 69.2663C187.639 70.5163 197.629 67.8763 200.609 58.2663C203.589 48.6563 194.609 41.7863 194.609 41.7863C199.609 38.5163 201.929 28.9263 195.539 20.9063C189.149 12.8863 182.729 16.1863 182.729 16.1863C175.979 7.34634 170.459 15.4563 170.459 15.4563C170.459 15.4563 163.979 6.66634 151.329 13.6663C139.089 20.4063 143.089 32.8163 143.089 32.8163C140.675 33.3882 138.517 34.7412 136.951 36.6652C135.385 38.5892 134.499 40.9766 134.429 43.4563C133.959 52.4363 148.089 55.3363 148.089 55.3363L158.269 69.2663Z" fill="#231012"/>
<path d="M170.199 15.5564C170.621 16.292 170.783 17.1478 170.659 17.9864C170.668 18.471 170.568 18.9513 170.367 19.3924C170.166 19.8335 169.87 20.2243 169.499 20.5364C168.589 21.1064 167.609 20.2464 167.079 19.5364C166.808 19.2356 166.665 18.8411 166.679 18.4364C166.789 17.8564 167.519 17.8564 167.849 18.2364C168.119 18.6558 168.296 19.1278 168.368 19.6211C168.441 20.1143 168.407 20.6173 168.269 21.0964C167.939 22.4264 166.829 23.5964 165.369 23.0964C164.938 22.9536 164.58 22.6488 164.369 22.2464C164.108 21.8663 163.995 21.4043 164.049 20.9464C164.189 20.5864 164.589 20.9464 164.789 21.1164C165.123 21.4524 165.316 21.903 165.329 22.3764C165.33 23.4999 164.933 24.5873 164.209 25.4464C163.942 25.8822 163.56 26.2354 163.105 26.4666C162.649 26.6979 162.138 26.7983 161.629 26.7564C161.319 26.6864 161.179 27.1664 161.499 27.2364C164.009 27.7964 166.089 24.2364 165.799 22.1364C165.74 21.5835 165.48 21.0713 165.069 20.6964C164.749 20.4264 164.219 20.0964 163.819 20.3864C162.999 20.9964 163.909 22.6564 164.449 23.1464C164.731 23.3705 165.058 23.5319 165.407 23.6201C165.757 23.7082 166.121 23.721 166.475 23.6576C166.83 23.5943 167.167 23.4562 167.464 23.2525C167.762 23.0489 168.012 22.7843 168.199 22.4764C168.58 21.8899 168.815 21.2202 168.883 20.5241C168.95 19.8279 168.85 19.1256 168.589 18.4764C168.502 18.2131 168.342 17.9796 168.128 17.8028C167.914 17.626 167.654 17.5129 167.379 17.4764C167.124 17.4646 166.871 17.5376 166.661 17.6841C166.452 17.8306 166.296 18.0424 166.219 18.2864C165.929 19.4164 167.219 20.6764 168.159 21.0964C169.499 21.7164 170.569 20.4964 170.939 19.3164C171.309 18.1364 171.429 16.3164 170.649 15.3164C170.459 15.0664 170.029 15.3164 170.219 15.5664L170.199 15.5564Z" fill="#3A130E"/>
<path d="M159.839 56.8165C159.369 54.6965 160.159 51.7565 162.019 50.4765C163.218 49.7843 164.566 49.3932 165.949 49.3365C166.949 49.2265 168.839 49.0265 169.639 49.8765C169.999 50.2565 169.799 50.7565 169.559 51.1465C169.319 51.5365 168.969 52.0865 168.479 51.9965C167.479 51.8065 167.189 50.0765 167.219 49.2865C167.246 48.5244 167.519 47.7914 167.997 47.1968C168.474 46.6022 169.131 46.1777 169.869 45.9865C171.719 45.4265 174.989 45.9865 175.139 48.3965C175.189 49.0565 174.929 50.3465 174.219 50.6465C173.509 50.9465 173.219 49.5365 173.339 49.0665C173.689 47.7665 176.199 48.3465 177.049 48.5665C178.409 48.9065 180.349 49.5665 181.049 50.8665C181.199 51.1465 181.629 50.8665 181.479 50.6165C180.689 49.1765 178.639 48.4565 177.149 48.0865C176.009 47.7865 173.699 47.3165 172.949 48.6265C172.814 48.9744 172.771 49.3512 172.824 49.7206C172.876 50.0901 173.023 50.4398 173.249 50.7365C173.749 51.4565 174.509 51.2165 174.969 50.5865C175.276 50.1715 175.481 49.6896 175.566 49.1803C175.651 48.6711 175.614 48.1489 175.459 47.6565C175.229 47.1104 174.873 46.6269 174.419 46.2461C173.965 45.8652 173.427 45.598 172.849 45.4665C170.849 44.9165 168.219 45.4665 167.159 47.4665C166.806 48.1409 166.641 48.8979 166.682 49.658C166.722 50.4181 166.966 51.1533 167.389 51.7865C167.522 52.009 167.711 52.1926 167.938 52.3189C168.164 52.4453 168.42 52.51 168.679 52.5065C169.329 52.4365 169.809 51.7365 170.079 51.2065C170.819 49.7665 169.519 49.0265 168.249 48.8565C166.411 48.6352 164.546 48.8687 162.819 49.5365C161.79 50.0125 160.911 50.7606 160.277 51.7C159.642 52.6394 159.276 53.7343 159.219 54.8665C159.137 55.5705 159.171 56.2833 159.319 56.9765C159.389 57.2865 159.879 57.1565 159.809 56.8465L159.839 56.8165Z" fill="#3A130E"/>
<path d="M192.489 40.7964C193.44 41.5347 194.588 41.9764 195.789 42.0664C196.693 42.2515 197.625 42.2515 198.529 42.0664C199.347 41.8294 200.132 41.4936 200.869 41.0664C201.557 40.7455 202.125 40.2129 202.489 39.5464C202.598 39.2579 202.601 38.9402 202.499 38.6494C202.396 38.3585 202.194 38.1132 201.929 37.9564C201.499 37.6264 200.929 37.3164 200.449 37.7964C199.609 38.6864 200.239 40.4364 200.909 41.2164C201.254 41.5646 201.671 41.8341 202.13 42.0067C202.589 42.1793 203.08 42.2508 203.569 42.2164C204.337 42.1635 205.083 41.9405 205.754 41.5634C206.426 41.1864 207.004 40.6648 207.449 40.0364C207.639 39.7864 207.289 39.4364 207.089 39.6864C205.899 41.1764 203.629 42.4864 201.779 41.2864C201.322 40.9741 200.971 40.5308 200.771 40.015C200.571 39.4992 200.532 38.9349 200.659 38.3964C200.839 37.8564 201.189 37.9964 201.579 38.2864C201.705 38.3467 201.814 38.4366 201.897 38.5485C201.981 38.6603 202.035 38.7908 202.057 38.9286C202.079 39.0664 202.067 39.2073 202.022 39.3394C201.977 39.4714 201.9 39.5905 201.799 39.6864C200.875 40.6069 199.711 41.2482 198.439 41.5364C197.644 41.6964 196.824 41.6964 196.029 41.5364C194.875 41.4758 193.766 41.0758 192.839 40.3864C192.609 40.1664 192.249 40.5164 192.489 40.7364V40.7964Z" fill="#231012"/>
<path d="M147.999 21.2663C144.929 22.8263 142.619 18.6763 142.309 16.1663C142.206 15.6221 142.262 15.0598 142.469 14.5463C142.553 14.3485 142.71 14.1906 142.907 14.105C143.105 14.0195 143.327 14.0127 143.529 14.0863C144.079 14.3263 143.899 15.2063 143.759 15.6463C143.641 16.142 143.384 16.5938 143.019 16.9492C142.653 17.3046 142.195 17.5489 141.696 17.6537C141.197 17.7585 140.679 17.7194 140.201 17.5411C139.724 17.3627 139.307 17.0524 138.999 16.6463C138.171 15.6059 137.649 14.3562 137.489 13.0363C137.429 12.7163 136.949 12.8563 137.009 13.1663C137.192 14.5024 137.708 15.7711 138.509 16.8563C138.9 17.3261 139.402 17.6904 139.97 17.9158C140.537 18.1411 141.153 18.2204 141.759 18.1463C142.233 18.0547 142.679 17.8545 143.063 17.5612C143.446 17.268 143.757 16.8897 143.969 16.4563C144.181 16.1225 144.317 15.746 144.368 15.3536C144.418 14.9613 144.381 14.5627 144.259 14.1863C144.12 13.9169 143.881 13.7122 143.594 13.6152C143.307 13.5182 142.993 13.5365 142.719 13.6663C142.46 13.7981 142.24 13.9961 142.082 14.2402C141.924 14.4843 141.833 14.7658 141.819 15.0563C141.696 16.8141 142.211 18.5575 143.269 19.9663C144.429 21.6363 146.269 22.7263 148.269 21.7363C148.559 21.5863 148.269 21.1563 148.019 21.2963L147.999 21.2663Z" fill="#231012"/>
<path d="M113.769 51.8164C97.4193 56.9964 81.3493 72.8164 88.6593 98.2764C96.3093 124.886 116.969 138.276 138.959 131.276C160.949 124.276 170.299 100.106 161.089 75.3364C151.699 50.2764 130.089 46.6364 113.769 51.8164Z" fill="#BA6E4D"/>
<path d="M109.475 122.42C116.969 121.09 122.158 115.022 121.066 108.866C119.974 102.711 113.014 98.7982 105.521 100.128C98.0273 101.457 92.8379 107.525 93.93 113.681C95.0221 119.836 101.982 123.749 109.475 122.42Z" fill="#B25050"/>
<path d="M142.259 102.136C144.909 107.796 152.649 109.766 159.539 106.546C166.429 103.326 169.869 96.1065 167.219 90.4465C164.569 84.7865 156.829 82.8065 149.939 86.0365C143.049 89.2665 139.609 96.4765 142.259 102.136Z" fill="#B25050"/>
<path d="M126.549 82.8462C126.549 82.8462 127.809 94.2562 130.719 101.586C130.719 101.586 135.639 96.5862 137.959 99.2962C140.279 102.006 135.469 111.006 135.469 111.006" fill="#BA6E4D"/>
<path d="M126.549 82.8462C126.549 82.8462 127.809 94.2562 130.719 101.586C130.719 101.586 135.639 96.5862 137.959 99.2962C140.279 102.006 135.469 111.006 135.469 111.006" stroke="#AA5044" stroke-width="0.75" stroke-linecap="round" stroke-linejoin="round"/>
<path d="M124.329 116.006C124.329 116.006 137.979 122.306 145.329 109.356L124.329 116.006Z" fill="#BA6E4D"/>
<path d="M124.329 116.006C124.329 116.006 137.979 122.306 145.329 109.356" stroke="#AA5044" stroke-width="0.75" stroke-linecap="round" stroke-linejoin="round"/>
<path d="M105.869 89.5263C105.129 86.9063 106.519 83.8063 108.269 81.8963C109.175 80.8382 110.322 80.0133 111.613 79.4912C112.905 78.9691 114.303 78.7651 115.689 78.8963C114.069 80.6763 111.989 82.0363 110.489 83.8963C108.849 85.6882 107.307 87.5676 105.869 89.5263Z" fill="#231012"/>
<path d="M130.699 73.8864C132.029 72.0664 134.859 71.8864 136.839 72.4064C137.999 72.6811 139.076 73.2293 139.981 74.0051C140.885 74.781 141.591 75.7621 142.039 76.8664C140.071 76.5608 138.14 76.048 136.279 75.3364C134.439 74.7964 132.589 74.2764 130.699 73.8864Z" fill="#231012"/>
<path d="M117.689 94.5464C117.492 93.9281 117.176 93.3541 116.759 92.8564C117.176 92.0509 117.33 91.1344 117.197 90.2369C117.064 89.3395 116.652 88.5066 116.019 87.8564C115.729 87.8564 115.949 89.1264 115.949 89.4064C115.923 90.2827 115.775 91.1511 115.509 91.9865C115.226 91.8968 114.922 91.8968 114.639 91.9865C113.539 92.3465 113.119 94.0765 113.699 95.8465C114.279 97.6165 115.639 98.7664 116.699 98.4064C117.759 98.0464 118.269 96.3364 117.689 94.5464Z" fill="#231012"/>
<path d="M140.849 87.4164C140.684 86.6422 140.318 85.925 139.789 85.3364C140.154 84.5516 140.27 83.674 140.122 82.8213C139.973 81.9686 139.568 81.1817 138.959 80.5664C138.669 80.5664 138.889 81.8264 138.889 82.1064C138.867 82.9513 138.729 83.7892 138.479 84.5964C138.34 84.5764 138.198 84.5764 138.059 84.5964C137.059 84.8264 136.479 86.1964 136.659 87.7864C136.659 87.8464 136.659 87.8764 136.659 87.8964C136.659 87.9164 136.659 88.1964 136.729 88.3464C137.139 90.1664 138.379 91.4364 139.509 91.1864C140.639 90.9364 141.259 89.2364 140.849 87.4164Z" fill="#231012"/>
<path d="M163.089 83.9263C142.739 81.7363 141.289 66.3363 141.289 66.3363C127.679 67.2463 115.949 55.8263 115.949 55.8263C119.749 75.7163 103.069 77.5263 103.069 77.5263C108.619 97.5263 90.6491 104.686 90.6491 104.686L84.4791 100.686C70.1191 90.1563 79.9791 80.7863 79.9791 80.7863C71.7891 65.7863 86.1191 56.5663 86.1191 56.5663C90.2591 38.8863 107.539 43.6263 107.539 43.6263C111.508 39.082 117.079 36.2479 123.089 35.7163C133.249 34.8063 138.189 44.4563 138.189 44.4563C138.189 44.4563 145.899 42.5163 151.769 47.5563C157.639 52.5963 157.959 60.9163 157.959 60.9163C157.959 60.9163 165.609 65.8163 165.719 74.1263C165.829 82.4363 163.089 83.9263 163.089 83.9263Z" fill="#3A130E"/>
<path d="M85.8789 56.7664C86.1089 58.1464 86.6289 60.0164 88.0289 60.6564C88.3751 60.7948 88.7478 60.8541 89.1198 60.8299C89.4918 60.8057 89.8537 60.6986 90.179 60.5164C90.6851 60.1898 91.0684 59.7044 91.2689 59.1364C91.5689 58.4364 92.129 56.5964 90.929 56.3664C89.339 56.0564 89.2089 57.9964 89.5189 59.0264C89.6765 59.7608 90.0675 60.4245 90.6334 60.9184C91.1994 61.4122 91.9099 61.7097 92.6589 61.7664C93.4391 61.8251 94.2114 61.5768 94.811 61.0742C95.4107 60.5717 95.7903 59.8548 95.869 59.0764C95.939 58.3764 95.7789 56.1664 94.5389 56.7464C93.2989 57.3264 93.3889 58.8164 93.8189 59.8064C94.1268 60.4927 94.588 61.0993 95.1671 61.5795C95.7461 62.0597 96.4275 62.4007 97.1589 62.5764C97.9259 62.6907 98.7073 62.5036 99.3394 62.0543C99.9714 61.605 100.405 60.9284 100.549 60.1664C100.559 60.1054 100.546 60.0429 100.512 59.991C100.479 59.939 100.427 59.9013 100.367 59.8852C100.308 59.869 100.244 59.8755 100.189 59.9035C100.134 59.9314 100.091 59.9787 100.069 60.0364C99.9626 60.5909 99.6788 61.0957 99.2603 61.4745C98.8417 61.8534 98.3112 62.0857 97.7489 62.1364C96.759 62.0715 95.8334 61.6231 95.1689 60.8864C94.8283 60.5693 94.5567 60.1855 94.3708 59.7588C94.185 59.3321 94.0891 58.8718 94.0889 58.4064C94.0968 58.1688 94.1618 57.9366 94.2784 57.7295C94.3951 57.5224 94.5599 57.3464 94.7589 57.2164C95.2189 57.0064 95.3489 57.7564 95.3989 58.0764C95.5408 58.6611 95.4795 59.2767 95.225 59.8219C94.9706 60.3671 94.5382 60.8096 93.9989 61.0764C93.4 61.3441 92.7255 61.3905 92.0955 61.2074C91.4656 61.0242 90.921 60.6234 90.5589 60.0764C90.1389 59.3864 89.3189 57.5464 90.3489 57.0064C91.5589 56.3864 91.1489 58.2364 90.9489 58.7764C90.8016 59.2742 90.5133 59.7188 90.119 60.0564C89.8163 60.2536 89.4659 60.3652 89.105 60.3793C88.744 60.3934 88.386 60.3094 88.0689 60.1364C86.9789 59.4364 86.6089 57.8664 86.4089 56.6864C86.4089 56.3664 85.869 56.4964 85.929 56.8164L85.8789 56.7664Z" fill="#231012"/>
<path d="M102.239 77.6264C102.104 78.3989 101.758 79.1189 101.239 79.7064C100.719 80.3429 100.058 80.8497 99.3089 81.1864C98.6389 81.5164 97.6589 81.9464 96.9989 81.3964C96.6189 81.0764 95.8089 80.0464 96.5789 79.7364C97.5789 79.3064 97.959 80.6164 98.049 81.3864C98.2085 82.4375 98.0807 83.5121 97.679 84.4964C97.4652 84.7934 97.1866 85.0377 96.8643 85.211C96.5421 85.3842 96.1845 85.4819 95.8189 85.4964C94.8423 85.6284 93.85 85.5844 92.8889 85.3664C92.5789 85.2964 92.4389 85.7764 92.7589 85.8464C93.7817 86.0827 94.8391 86.1301 95.8789 85.9864C96.2995 85.9573 96.7093 85.8398 97.0815 85.6416C97.4537 85.4435 97.7799 85.1691 98.0389 84.8364C98.6248 83.5887 98.7796 82.1817 98.4789 80.8364C98.2689 79.7464 97.479 78.6164 96.239 79.2864C95.449 79.7164 95.799 80.6464 96.239 81.2164C96.4635 81.5634 96.794 81.8287 97.1813 81.9728C97.5687 82.1169 97.9922 82.1322 98.3889 82.0164C99.5337 81.7555 100.577 81.1644 101.389 80.3164C102.156 79.5785 102.667 78.6151 102.849 77.5664C102.849 77.5001 102.823 77.4365 102.776 77.3896C102.729 77.3427 102.665 77.3164 102.599 77.3164C102.533 77.3164 102.469 77.3427 102.422 77.3896C102.375 77.4365 102.349 77.5001 102.349 77.5664L102.239 77.6264Z" fill="#231012"/>
<path d="M137.519 44.3364C138.069 45.7364 137.599 47.6364 137.179 49.0064C136.899 49.8864 136.039 52.4564 134.669 51.7964C134.239 51.5964 133.369 50.7964 133.609 50.2064C133.849 49.6164 134.609 49.8864 134.949 49.9964C135.346 50.1292 135.704 50.3588 135.99 50.6644C136.276 50.97 136.481 51.3421 136.587 51.7471C136.694 52.152 136.697 52.577 136.598 52.9837C136.499 53.3904 136.3 53.7659 136.019 54.0764C134.699 55.5464 131.639 55.8064 131.229 53.4164L131.049 53.7264C132.579 53.4164 134.119 54.9364 134.329 56.3764C134.559 57.9864 132.709 59.0564 131.489 59.6564C131.199 59.7964 131.489 60.2264 131.739 60.0864C133.259 59.3364 135.229 58.0264 134.739 56.0864C134.359 54.4464 132.629 52.9264 130.889 53.2764C130.825 53.295 130.772 53.3381 130.74 53.3962C130.708 53.4543 130.7 53.5228 130.719 53.5864C131.139 56.0264 134.039 56.1964 135.719 54.9664C136.134 54.6839 136.473 54.3043 136.707 53.8608C136.942 53.4172 137.064 52.9231 137.064 52.4214C137.064 51.9197 136.942 51.4256 136.707 50.9821C136.473 50.5385 136.134 50.159 135.719 49.8764C135.414 49.6639 135.065 49.5229 134.698 49.464C134.331 49.4051 133.955 49.4299 133.599 49.5364C133.462 49.5929 133.34 49.679 133.24 49.7885C133.141 49.8981 133.067 50.0283 133.024 50.1699C132.981 50.3115 132.97 50.4609 132.991 50.6073C133.013 50.7536 133.067 50.8934 133.149 51.0164C133.312 51.4186 133.587 51.7655 133.942 52.0155C134.296 52.2656 134.715 52.4082 135.149 52.4264C135.949 52.3464 136.509 51.5764 136.869 50.9264C137.483 49.8286 137.897 48.6297 138.089 47.3864C138.336 46.3512 138.312 45.2696 138.019 44.2464C137.909 43.9464 137.419 44.0764 137.539 44.3764L137.519 44.3364Z" fill="#231012"/>
<path d="M157.579 60.6265C157.546 61.1407 157.374 61.6364 157.082 62.0608C156.789 62.4852 156.387 62.8224 155.919 63.0365C155.544 63.2756 155.115 63.4173 154.672 63.4488C154.228 63.4802 153.784 63.4003 153.379 63.2165C153.213 63.1059 153.076 62.9577 152.978 62.7838C152.881 62.61 152.826 62.4155 152.819 62.2165C152.819 61.9365 152.819 61.3265 153.189 61.3265C153.559 61.3265 153.929 61.7365 154.129 62.0065C154.449 62.4426 154.608 62.9762 154.579 63.5165C154.449 65.3165 152.179 66.1265 150.649 65.7865C150.339 65.7165 150.199 66.1965 150.519 66.2665C152.219 66.6465 154.409 65.8765 154.969 64.0965C155.149 63.479 155.103 62.8173 154.839 62.2306C154.575 61.644 154.111 61.1708 153.529 60.8965C152.229 60.4265 152.129 62.3465 152.529 63.1165C153.109 64.1165 154.529 64.1165 155.529 63.8065C156.232 63.6069 156.856 63.1937 157.315 62.6241C157.774 62.0544 158.044 61.3564 158.089 60.6265C158.089 60.5602 158.062 60.4966 158.015 60.4497C157.969 60.4028 157.905 60.3765 157.839 60.3765C157.772 60.3765 157.709 60.4028 157.662 60.4497C157.615 60.4966 157.589 60.5602 157.589 60.6265H157.579Z" fill="#231012"/>
<path d="M163.289 103.736L162.929 84.6762C162.929 84.6762 164.099 70.6762 171.839 71.7562C179.579 72.8362 184.349 93.3362 163.289 103.736Z" fill="#BA6E4D"/>
<path d="M178.409 84.5862C177.809 91.0862 173.659 98.6562 163.229 103.736L163.009 85.2262C166.339 82.1462 174.619 75.7762 178.409 84.5862Z" fill="#AA5044"/>
<path d="M101.229 121.476L91.8189 104.906C91.8189 104.906 83.679 93.4762 77.569 98.3362C71.459 103.196 77.799 123.256 101.229 121.476Z" fill="#BA6E4D"/>
<path d="M78.5291 112.446C82.2891 117.786 89.6491 122.286 101.229 121.446L92.2291 105.286C87.7891 104.336 77.4391 102.916 78.5291 112.446Z" fill="#AA5044"/>
<path d="M211.879 214.886C208.938 212.219 206.786 208.794 205.659 204.986C205.549 204.586 205.52 204.168 205.572 203.756C205.624 203.344 205.756 202.946 205.962 202.585C206.168 202.224 206.442 201.908 206.771 201.653C207.099 201.399 207.474 201.211 207.874 201.101C208.275 200.992 208.693 200.962 209.105 201.014C209.517 201.066 209.915 201.199 210.275 201.404C210.636 201.61 210.953 201.885 211.207 202.213C211.462 202.541 211.649 202.916 211.759 203.316C212.588 205.784 213.978 208.026 215.819 209.866C219.759 213.766 225.269 215.086 232.189 213.786C235.414 213.261 238.469 211.977 241.101 210.04C243.733 208.103 245.868 205.569 247.329 202.646C251.589 194.356 251.249 183.246 246.419 172.926C240.419 160.096 233.569 137.806 240.749 124.286C244.459 117.286 250.999 112.876 259.639 111.506C261.369 111.236 265.949 111.506 267.539 115.596C267.824 116.186 267.966 116.834 267.954 117.489C267.941 118.143 267.775 118.786 267.468 119.364C267.162 119.943 266.723 120.441 266.188 120.818C265.653 121.195 265.037 121.442 264.389 121.536C257.689 122.596 253.009 125.856 250.099 131.026C241.969 145.496 246.329 157.816 252.099 170.246C257.749 182.316 258.099 195.516 252.909 205.536C250.995 209.311 248.225 212.585 244.82 215.097C241.415 217.61 237.47 219.291 233.299 220.006C223.319 221.886 216.359 218.966 211.879 214.886Z" fill="#D6632C"/>
<path d="M249.849 131.506C249.929 131.346 250.009 131.186 250.099 131.026C253.009 125.856 257.689 122.596 264.389 121.536C265.037 121.441 265.653 121.195 266.188 120.818C266.723 120.441 267.162 119.942 267.468 119.364C267.775 118.786 267.941 118.143 267.954 117.489C267.966 116.834 267.824 116.186 267.539 115.596C265.949 111.466 261.369 111.236 259.639 111.506C251.229 112.836 244.819 117.066 241.059 123.736C243.139 127.153 246.203 129.861 249.849 131.506Z" fill="#EFD79A"/>
<path d="M233.859 136.396C233.859 136.396 240.729 144.656 249.549 141.566" stroke="#EFD79A" stroke-width="6" stroke-miterlimit="10"/>
<path d="M249.449 150.757C249.449 150.757 242.349 157.587 235.759 153.557" stroke="#EFD79A" stroke-width="6" stroke-miterlimit="10"/>
<path d="M254.359 162.886C254.359 162.886 247.769 173.056 241.589 170.886" stroke="#EFD79A" stroke-width="6" stroke-miterlimit="10"/>
<path d="M244.319 180.156C244.319 180.156 251.669 184.616 258.319 181.096" stroke="#EFD79A" stroke-width="6" stroke-miterlimit="10"/>
<path d="M245.619 191.866C245.619 191.866 252.229 197.766 259.759 195.456" stroke="#EFD79A" stroke-width="6" stroke-miterlimit="10"/>
<path d="M243.939 201.536C243.939 201.536 246.549 209.626 254.029 213.316" stroke="#EFD79A" stroke-width="6" stroke-miterlimit="10"/>
<path d="M237.089 209.016C237.089 209.016 236.139 217.566 240.819 221.826" stroke="#EFD79A" stroke-width="6" stroke-miterlimit="10"/>
<path d="M226.389 211.076C226.389 211.076 222.759 218.176 225.039 223.966" stroke="#EFD79A" stroke-width="6" stroke-miterlimit="10"/>
<path d="M219.429 207.437C219.429 207.437 212.999 212.137 211.279 218.557" stroke="#EFD79A" stroke-width="6" stroke-miterlimit="10"/>
<path d="M166.009 141.796C166.009 141.796 164.359 175.396 171.659 198.106C171.659 198.106 164.079 203.866 167.519 219.216C167.519 219.216 161.289 208.616 153.999 211.796C153.999 211.796 164.999 229.136 171.659 233.616H231.739C246.449 233.616 250.289 215.056 241.969 198.746C233.649 182.436 198.459 143.196 198.459 143.196L166.009 141.796Z" fill="#FF8326"/>
<path d="M226.299 192.336C226.299 192.336 198.139 192.796 199.579 225.196C199.579 225.196 191.759 211.526 183.119 216.646L199.509 233.646" stroke="#EB9B22" stroke-width="0.75" stroke-linecap="round" stroke-linejoin="round"/>
<path d="M181.089 161.786C181.089 161.786 177.679 175.396 170.009 179.226C162.339 183.056 153.089 184.336 145.999 192.336C138.909 200.336 142.159 208.006 147.599 207.056C153.039 206.106 155.599 200.056 161.059 197.456C161.059 197.456 177.679 194.576 183.119 190.736C188.559 186.896 197.189 178.896 204.709 179.216" fill="#FF8326"/>
<path d="M147.529 195.266C147.529 195.266 143.119 196.826 142.159 203.266" stroke="#EB9B22" stroke-width="0.75" stroke-linecap="round" stroke-linejoin="round"/>
<path d="M149.329 198.746C148.167 199.788 147.245 201.07 146.627 202.503C146.009 203.936 145.709 205.486 145.749 207.046" stroke="#EB9B22" stroke-width="0.75" stroke-linecap="round" stroke-linejoin="round"/>
<path d="M170.829 195.336C175.469 194.156 180.539 192.556 183.119 190.736C188.549 186.896 197.189 178.896 204.709 179.216" stroke="#EB9B22" stroke-width="0.75" stroke-linecap="round" stroke-linejoin="round"/>
<path d="M181.089 161.786C181.089 161.786 177.679 175.396 170.009 179.226C169.289 179.596 168.549 179.936 167.799 180.226" stroke="#EB9B22" stroke-width="0.75" stroke-linecap="round" stroke-linejoin="round"/>
<path d="M198.459 143.196L166.009 141.796C166.009 141.796 165.719 147.696 165.919 156.206C169.309 160.846 175.329 167.356 183.119 168.596C190.719 169.806 204.399 164.896 213.819 160.926C205.389 150.916 198.459 143.196 198.459 143.196Z" fill="#D6632C"/>
<path d="M186.929 112.266C180.799 95.9764 168.309 90.7964 168.309 90.7964C157.559 106.886 163.849 121.486 163.849 121.486L186.929 112.266Z" fill="#D6632C"/>
<path d="M182.839 112.836C178.519 101.376 169.729 97.7263 169.729 97.7263C162.169 109.056 166.589 119.336 166.589 119.336L182.839 112.836Z" fill="#F5ADA1"/>
<path d="M202.679 116.566C216.239 105.666 229.619 107.566 229.619 107.566C230.689 126.886 217.849 136.256 217.849 136.256L202.679 116.566Z" fill="#D6632C"/>
<path d="M205.899 119.146C215.449 111.476 224.899 112.806 224.899 112.806C225.649 126.406 216.609 133.006 216.609 133.006L205.899 119.146Z" fill="#F5ADA1"/>
<path d="M219.619 128.646C216.889 123.166 208.239 115.016 195.619 111.556C182.969 108.096 171.369 110.706 166.229 114.036C161.089 117.366 146.829 135.236 149.429 145.626C149.429 145.626 156.869 145.546 165.509 151.226C174.149 156.906 176.249 158.096 182.429 159.786C188.609 161.476 191.029 161.536 201.359 161.036C211.689 160.536 218.049 164.386 218.049 164.386C225.539 156.776 222.359 134.136 219.619 128.646Z" fill="#FF8326"/>
<path d="M152.999 130.426C163.489 125.706 174.919 126.326 174.919 126.326C168.956 124.107 162.475 123.672 156.269 125.076C155.087 126.802 153.995 128.587 152.999 130.426Z" fill="#EFD79A"/>
<path d="M149.809 138.056C149.03 140.503 148.885 143.108 149.389 145.626C150.937 145.669 152.476 145.877 153.979 146.246C160.899 136.876 171.799 132.246 171.799 132.246C164.012 131.516 156.219 133.575 149.809 138.056Z" fill="#EFD79A"/>
<path d="M162.339 149.336C164.4 145.397 166.998 141.762 170.059 138.536C165.279 140.536 161.059 144.676 158.549 147.616C159.842 148.122 161.107 148.697 162.339 149.336Z" fill="#EFD79A"/>
<path d="M222.639 149.466C216.019 140.066 205.859 134.786 205.859 134.786C212.121 135.909 217.921 138.831 222.549 143.196C222.684 145.284 222.714 147.376 222.639 149.466Z" fill="#EFD79A"/>
<path d="M221.499 157.667C220.934 160.17 219.732 162.485 218.009 164.387C216.651 163.642 215.22 163.039 213.739 162.587C212.559 150.997 205.549 141.437 205.549 141.437C212.622 144.784 218.275 150.537 221.499 157.667Z" fill="#EFD79A"/>
<path d="M204.959 161.036C205.183 156.595 204.796 152.143 203.809 147.806C206.899 151.956 208.389 157.646 209.089 161.476C207.722 161.249 206.343 161.102 204.959 161.036Z" fill="#EFD79A"/>
<path d="M198.089 138.276C197.609 140.366 198.319 142.276 199.659 142.616C200.999 142.956 202.489 141.486 202.969 139.396C203.449 137.306 202.739 135.396 201.389 135.046C200.039 134.696 198.559 136.186 198.089 138.276Z" fill="#3A130E"/>
<path d="M199.649 142.616C198.309 142.316 197.649 140.366 198.079 138.276C198.175 137.851 198.319 137.439 198.509 137.046L202.609 140.446C201.949 141.946 200.759 142.876 199.649 142.616Z" fill="#231012"/>
<path d="M200.659 138.206C200.499 138.906 200.659 139.546 201.129 139.646C201.599 139.746 202.009 139.246 202.129 138.556C202.249 137.866 202.079 137.216 201.659 137.116C201.239 137.016 200.819 137.516 200.659 138.206Z" fill="#EFF6FE"/>
<path d="M187.919 138.336C189.629 138.726 194.359 140.116 194.129 141.596C193.899 143.076 186.589 144.166 186.589 144.166C186.589 144.166 180.489 140.006 180.919 138.576C181.349 137.146 186.219 137.946 187.919 138.336Z" fill="#231012"/>
<path d="M178.379 143.156C178.379 143.156 178.959 146.706 182.219 147.006C183.17 147.157 184.143 146.951 184.95 146.426C185.757 145.902 186.341 145.096 186.589 144.166C186.407 145.112 186.582 146.092 187.081 146.915C187.58 147.739 188.367 148.349 189.289 148.626C192.359 149.766 194.419 146.816 194.419 146.816" stroke="#231012" stroke-linecap="round" stroke-linejoin="round"/>
<path d="M174.749 132.946C174.269 135.036 174.979 136.946 176.319 137.286C177.659 137.626 179.149 136.146 179.619 134.056C180.089 131.966 179.399 130.056 178.049 129.716C176.699 129.376 175.229 130.856 174.749 132.946Z" fill="#231012"/>
<path d="M176.319 137.336C174.979 137.026 174.269 135.086 174.749 132.996C174.845 132.571 174.989 132.159 175.179 131.766L179.279 135.166C178.619 136.616 177.429 137.536 176.319 137.336Z" fill="#231012"/>
<path d="M177.329 132.876C177.169 133.576 177.329 134.216 177.789 134.316C178.249 134.416 178.669 133.916 178.789 133.226C178.909 132.536 178.789 131.886 178.329 131.786C177.869 131.686 177.489 132.176 177.329 132.876Z" fill="#EFF6FE"/>
<path d="M263.189 244.016C260.189 250.086 210.109 241.356 184.949 237.366C180.759 237.366 169.949 235.286 160.889 234.056C151.829 232.826 136.769 231.906 136.559 230.056C136.419 228.846 152.559 226.966 150.499 226.786C148.439 226.606 128.209 224.316 129.679 223.096C131.149 221.876 153.839 220.096 150.329 219.586C146.819 219.076 123.779 215.286 124.969 213.366C126.159 211.446 152.259 215.306 150.149 214.266C148.039 213.226 125.149 205.426 126.149 203.986C127.149 202.546 138.879 205.486 141.839 206.426C144.799 207.366 164.379 210.186 165.289 209.116C166.199 208.046 164.359 206.386 160.759 203.186C157.159 199.986 156.149 196.006 156.379 193.796C156.699 190.796 159.569 192.016 165.129 197.996C168.539 201.666 173.609 204.266 179.599 207.346C184.269 209.756 186.909 216.876 187.849 219.886C205.259 218.156 231.099 214.886 236.939 213.386C247.089 210.836 269.589 231.176 263.189 244.016Z" fill="#AA5044"/>
<path d="M258.169 225.576C257.889 224.396 242.099 228.086 243.929 227.226C245.759 226.366 264.089 217.336 262.279 216.696C260.469 216.056 238.519 222.056 241.659 220.406C244.799 218.756 265.169 207.346 263.399 205.946C261.629 204.546 238.399 217.026 240.019 215.336C241.639 213.646 260.499 198.546 259.099 197.526C257.699 196.506 247.629 203.256 245.159 205.146C242.689 207.036 225.239 216.336 224.029 215.636C222.819 214.936 223.969 212.756 226.269 208.516C228.569 204.276 228.169 200.206 227.199 198.206C225.869 195.446 223.599 197.606 220.399 205.116C218.399 209.726 214.549 213.896 209.959 218.826C206.389 222.676 206.319 230.276 206.459 233.416C189.459 237.706 157.969 245.796 152.069 244.556C145.299 243.146 136.339 216.276 130.069 201.786C123.799 187.296 110.789 157.396 103.989 163.716C94.819 172.216 91.879 201.376 110.229 237.196C123.379 262.846 135.389 280.606 143.809 281.666C150.539 282.516 192.809 261.156 215.149 248.866C219.069 247.386 228.519 241.866 236.649 237.576C244.779 233.286 258.589 227.336 258.169 225.576Z" fill="#BA6E4D"/>
</svg>
