<svg width="319" height="319" viewBox="0 0 319 319" fill="none" xmlns="http://www.w3.org/2000/svg">
<path d="M238.924 238.924C282.909 194.94 282.909 123.626 238.924 79.6415C194.94 35.6568 123.626 35.6568 79.6414 79.6415C35.6567 123.626 35.6567 194.94 79.6414 238.924C123.626 282.909 194.94 282.909 238.924 238.924Z" fill="#EAE5DF"/>
<path d="M220.971 231.52C217.924 228.745 215.699 225.185 214.541 221.23C214.429 220.437 214.612 219.63 215.053 218.961C215.494 218.293 216.164 217.808 216.937 217.598C217.71 217.389 218.533 217.468 219.252 217.822C219.97 218.176 220.535 218.779 220.841 219.52C221.709 222.087 223.156 224.421 225.071 226.34C229.181 230.4 234.921 231.78 242.131 230.43C245.493 229.88 248.677 228.54 251.42 226.52C254.163 224.5 256.388 221.858 257.911 218.81C262.341 210.17 261.991 198.6 256.911 187.81C250.651 174.44 243.531 151.22 251.011 137.13C254.881 129.84 261.691 125.24 270.691 123.81C272.491 123.53 277.271 123.81 278.921 128.07C279.216 128.684 279.364 129.359 279.35 130.041C279.337 130.723 279.164 131.391 278.845 131.994C278.526 132.596 278.07 133.115 277.513 133.509C276.956 133.902 276.315 134.16 275.641 134.26C268.641 135.36 263.791 138.76 260.751 144.15C252.281 159.23 256.821 172.07 262.881 185.01C268.771 197.6 269.091 211.34 263.731 221.78C261.739 225.715 258.854 229.129 255.306 231.749C251.759 234.37 247.647 236.123 243.301 236.87C232.881 238.83 225.631 235.8 220.971 231.52Z" fill="#D6986E"/>
<path d="M260.541 144.66L260.801 144.16C263.801 138.77 268.711 135.37 275.691 134.27C276.365 134.17 277.006 133.912 277.563 133.519C278.12 133.125 278.576 132.606 278.895 132.004C279.214 131.401 279.387 130.732 279.401 130.051C279.414 129.369 279.266 128.694 278.971 128.08C277.321 123.78 272.541 123.54 270.741 123.82C261.981 125.21 255.301 129.61 251.391 136.56C253.553 140.122 256.743 142.946 260.541 144.66Z" fill="#AD7041"/>
<path d="M243.87 149.75C243.87 149.75 251.03 158.37 260.22 155.15" stroke="#AD7041" stroke-width="6" stroke-miterlimit="10"/>
<path d="M260.11 164.71C260.11 164.71 252.72 171.84 245.85 167.63" stroke="#AD7041" stroke-width="6" stroke-miterlimit="10"/>
<path d="M265.24 177.36C265.24 177.36 258.36 187.96 251.92 185.65" stroke="#AD7041" stroke-width="6" stroke-miterlimit="10"/>
<path d="M254.77 195.35C254.77 195.35 262.43 199.99 269.34 196.35" stroke="#AD7041" stroke-width="6" stroke-miterlimit="10"/>
<path d="M256.13 207.52C256.13 207.52 263.01 213.67 270.86 211.27" stroke="#AD7041" stroke-width="6" stroke-miterlimit="10"/>
<path d="M254.37 217.63C254.37 217.63 257.09 226.06 264.89 229.9" stroke="#AD7041" stroke-width="6" stroke-miterlimit="10"/>
<path d="M247.26 225.42C247.26 225.42 246.26 234.33 251.14 238.77" stroke="#AD7041" stroke-width="6" stroke-miterlimit="10"/>
<path d="M236.081 227.57C236.081 227.57 232.301 234.97 234.681 241.01" stroke="#AD7041" stroke-width="6" stroke-miterlimit="10"/>
<path d="M228.83 223.78C228.83 223.78 222.14 228.67 220.34 235.36" stroke="#AD7041" stroke-width="6" stroke-miterlimit="10"/>
<path d="M198.751 159.29L161.541 152.22C141.101 180.56 134.291 241.22 137.541 269.8C144.729 271.208 152.036 271.918 159.361 271.92C183.265 271.951 206.553 264.344 225.831 250.21C237.541 194.83 198.751 159.29 198.751 159.29Z" fill="#AD7041"/>
<path d="M190.481 224.62C190.481 224.62 209.141 258.19 218.481 262.52C227.821 266.85 235.811 267.19 239.151 264.86C242.491 262.53 242.481 252.12 241.151 246.19C239.821 240.26 215.491 197.52 209.481 188.19C203.471 178.86 192.151 160.19 177.481 169.86C162.811 179.53 181.601 206.39 190.481 224.62Z" fill="#E0A375"/>
<path d="M163.65 61.6899C164.33 64.7999 160.39 67.7399 157.59 66.3699C157.01 66.0799 158.05 65.9899 158.26 65.9299C159.243 65.6629 160.161 65.2004 160.96 64.5699C161.612 64.0808 162.194 63.5055 162.69 62.8598C162.86 62.6398 163.39 61.5199 163.65 61.6899Z" fill="#231012"/>
<path d="M97.1406 120.86C99.3206 122.67 106.301 122.62 113.471 120.02C120.641 117.42 117.471 108.02 116.801 101.69C116.131 95.3599 120.731 88.5199 123.191 88.6899C125.651 88.8599 156.121 63.0999 156.121 63.0999C156.121 63.0999 165.471 62.8098 169.121 54.4998C172.771 46.1898 171.281 38.0198 169.121 36.8598C166.961 35.6999 161.571 39.6898 156.431 40.3598C156.431 40.3598 161.851 37.5199 163.431 29.1899C165.011 20.8599 161.941 16.1898 159.301 14.3598C156.661 12.5298 152.641 17.1899 141.561 20.1899C130.481 23.1899 117.311 27.0199 102.481 29.0199C87.6506 31.0199 72.6506 37.8598 73.3106 55.1898C73.9706 72.5199 88.4806 89.8599 92.3106 102.19C96.1406 114.52 93.9706 118.23 97.1406 120.86Z" fill="#915933"/>
<path d="M159.291 62.96C159.291 62.96 163.471 74.19 172.801 78.36C172.801 78.36 167.711 85.02 161.471 86.19L159.291 62.96Z" fill="#CE8061"/>
<path d="M142.051 33.5199C152.121 34.5199 158.301 49.7699 161.551 65.2699C164.801 80.7699 164.021 108.27 159.291 110.52C154.561 112.77 139.801 111.27 134.051 112.77C128.301 114.27 138.801 144.77 138.801 144.77L100.051 152.02C100.051 152.02 103.801 134.02 97.5509 110.02C91.3009 86.0199 76.7009 60.2799 85.7009 48.6399C94.7009 36.9999 124.051 31.7699 142.051 33.5199Z" fill="#E0A375"/>
<path d="M153.141 49.5199C152.001 51.2499 150.661 52.8299 149.481 54.5199C148.301 56.2099 147.201 57.9699 145.801 59.5199C144.201 55.1899 148.351 48.9899 153.141 49.5199Z" fill="#915933"/>
<path d="M157.541 80.6799C157.811 86.9199 151.871 92.2599 144.271 92.5899C136.671 92.9199 130.271 88.1299 130.001 81.8799C129.731 75.6299 135.671 70.3099 143.281 69.9699C150.891 69.6299 157.231 74.4299 157.541 80.6799Z" fill="#E5806E"/>
<path d="M155.79 65.2097C157.2 63.6597 157.64 61.0697 156.24 59.4697C155.95 59.4697 156.01 60.7097 155.96 60.9897C155.809 61.9888 155.491 62.9554 155.02 63.8497C154.829 63.5935 154.575 63.3914 154.282 63.2634C153.989 63.1354 153.668 63.0859 153.35 63.1197C152.21 63.3297 151.56 64.9897 151.9 66.8197C152.24 68.6497 153.45 69.9697 154.59 69.7497C155.73 69.5297 156.38 67.8797 156.03 66.0497C155.979 65.7623 155.899 65.4809 155.79 65.2097Z" fill="#231012"/>
<path d="M149.471 86.1899C149.471 86.1899 154.041 94.5299 163.421 92.6099" stroke="#B76C53" stroke-width="0.75" stroke-linecap="round" stroke-linejoin="round"/>
<path d="M123.811 98.3599C123.811 98.3599 124.971 113.65 132.811 122.23C132.021 117.23 132.071 113.29 134.051 112.77C139.801 111.27 154.551 112.77 159.291 110.52C159.291 110.52 137.471 110.19 132.801 106.86C129.511 104.354 126.497 101.504 123.811 98.3599Z" fill="#CE8061"/>
<path d="M159.291 14.3598C156.641 12.5198 152.631 17.1898 141.551 20.1898C130.471 23.1898 117.301 27.0198 102.471 29.0198C87.6408 31.0198 72.6408 37.8598 73.3008 55.1898C73.9608 72.5198 88.4708 89.8598 92.3008 102.19C96.1308 114.52 93.9708 118.19 97.1408 120.86C99.3208 122.67 106.301 122.62 113.471 120.02C120.641 117.42 117.471 108.02 116.801 101.69C116.201 95.9598 119.901 89.8498 122.421 88.8498L123.691 75.9798C137.541 66.4498 132.471 51.5198 132.471 51.5198C139.301 49.8598 150.761 46.9898 156.471 40.3598L157.561 39.6098C160.735 36.9769 162.828 33.2676 163.441 29.1898C164.971 20.8598 161.931 16.1898 159.291 14.3598Z" fill="#AD7041"/>
<path d="M132.211 65.1998C132.211 65.1998 97.8505 69.8399 75.7505 43.5999C75.7505 43.5999 104.55 64.5999 133.34 59.4799" stroke="#915933" stroke-width="0.5" stroke-linecap="round" stroke-linejoin="round"/>
<path d="M161.541 16.6099C161.541 16.6099 158.001 31.1899 142.331 34.6899C126.661 38.1899 94.6406 25.9099 77.3306 41.1299" stroke="#915933" stroke-width="0.5" stroke-linecap="round" stroke-linejoin="round"/>
<path d="M158.89 38.3898C158.89 38.3898 141.46 46.9798 117.63 34.0898" stroke="#915933" stroke-width="0.5" stroke-linecap="round" stroke-linejoin="round"/>
<path d="M128.541 93.8298L124.311 77.0598C124.311 77.0598 118.931 66.3298 111.781 71.9198C104.631 77.5098 115.811 97.6298 128.541 93.8298Z" fill="#E0A375"/>
<path d="M128.54 93.8297L124.31 77.0597C124.31 77.0597 124.09 76.6297 123.68 75.9797C122.191 75.3486 120.552 75.1573 118.957 75.4284C117.362 75.6995 115.878 76.4218 114.68 77.5097C112.68 79.2897 112.13 82.5097 112.43 85.9697C115.89 91.4197 122.01 95.7797 128.54 93.8297Z" fill="#CE8061"/>
<path d="M59.4805 29.7599C34.0205 30.5499 34.6505 57.9399 41.9805 72.6799C49.3105 87.4199 70.3105 129.6 42.1505 146.43C42.1505 146.43 60.1505 148.43 73.3105 135.26C86.4705 122.09 88.5205 94.5699 85.8105 71.7599C83.1005 48.9499 80.9805 29.0999 59.4805 29.7599Z" fill="#915933"/>
<path d="M69.2709 31.2799C69.2709 31.2799 56.6409 29.2799 53.8009 43.5799C50.9609 57.8799 65.4009 77.8599 69.2709 96.3599C73.1409 114.86 62.6609 140.01 42.1509 146.43" stroke="#AD7041" stroke-width="0.5" stroke-linecap="round" stroke-linejoin="round"/>
<path d="M57.4009 144.66C57.4009 144.66 72.3209 135.19 70.0609 102.19" stroke="#AD7041" stroke-width="0.5" stroke-linecap="round" stroke-linejoin="round"/>
<path d="M45.7805 34.0898C45.7805 34.0898 37.7005 43.8098 42.1505 60.6598C48.1505 83.3598 68.8305 109.04 59.1505 134.66" stroke="#AD7041" stroke-width="0.5" stroke-linecap="round" stroke-linejoin="round"/>
<path d="M78.8008 42.6899C78.8008 42.6899 106.301 115.02 71.3008 140.02" stroke="#915933" stroke-width="0.5" stroke-linecap="round" stroke-linejoin="round"/>
<path d="M38.6407 51.5198C38.6407 51.5198 35.8207 61.6898 42.1507 78.1898C48.4807 94.6898 59.1507 124.69 45.4707 140.02" stroke="#915933" stroke-width="0.5" stroke-linecap="round" stroke-linejoin="round"/>
<path d="M89.0708 159.29C89.0708 159.29 93.8108 148.83 97.4708 144.66C101.131 140.49 128.291 133.86 141.551 137.86C154.811 141.86 159.411 149.86 159.411 149.86L89.0708 159.29Z" fill="#969269"/>
<path d="M182.181 155.09C162.851 145.66 140.181 138.67 108.181 146.43C92.9109 150.13 74.4708 165.52 73.3208 178.52C72.4608 188.32 80.8509 225.19 92.4309 249.9C105.659 259.66 120.862 266.41 136.974 269.674C153.086 272.939 169.717 272.641 185.701 268.8L187.051 233.42C187.051 233.42 190.511 241.52 192.841 243.52C195.171 245.52 210.181 239.52 218.511 231.52C226.841 223.52 231.181 215.52 228.511 208.86C225.841 202.2 201.541 164.52 182.181 155.09Z" fill="#7E7B44"/>
<path d="M69.9307 176.07C73.1507 173.8 76.3807 171.36 80.1007 169.95C83.7276 168.535 87.7537 168.535 91.3807 169.95C92.5773 170.386 93.5991 171.2 94.2907 172.27C94.8066 173.207 95.0491 174.271 94.9907 175.34C94.7575 177.824 94.1576 180.261 93.2107 182.57C92.0107 186.17 89.5307 193.36 94.8807 194.79C97.1307 195.39 99.6207 194.96 101.881 194.65C104.728 194.15 107.622 193.959 110.511 194.08C113.231 194.29 116.101 195.08 118.051 197.08C120.321 199.45 120.661 202.89 120.601 206.02C120.601 208.69 119.981 211.48 118.111 213.48C116.224 215.264 113.838 216.429 111.271 216.82C108.271 217.46 105.051 217.29 102.181 218.47C100.822 218.992 99.668 219.939 98.8907 221.17C98.104 222.562 97.8048 224.178 98.0407 225.76C98.2207 227.55 98.6807 229.38 98.3307 231.17C97.8856 232.794 97.0711 234.293 95.9507 235.55C94.499 237.516 92.354 238.856 89.9507 239.3C85.1307 239.99 80.6407 236.5 77.6907 233.07C74.3207 229.15 71.6906 223.98 71.5306 218.73C71.4958 218.154 71.4958 217.576 71.5306 217C71.5306 216.71 71.5907 216.43 71.6307 216.14C71.6707 215.85 71.9306 215.38 72.0006 214.97C72.0706 214.56 71.5607 214.52 71.5107 214.84C71.4607 215.16 71.2206 215.59 71.1506 216.01C71.0806 216.43 71.0707 216.59 71.0407 216.89C70.984 217.481 70.9673 218.076 70.9907 218.67C71.0382 219.927 71.2124 221.177 71.5107 222.4C72.1795 225.058 73.2664 227.593 74.7307 229.91C77.3307 234.11 81.3107 238.31 86.2607 239.56C88.3763 240.13 90.6266 239.921 92.6007 238.97C95.0254 237.593 96.9616 235.496 98.1407 232.97C98.8807 231.385 99.1046 229.608 98.7806 227.89C98.5706 226.16 98.1006 224.23 98.7206 222.53C100.021 218.98 103.791 218.23 107.121 217.88C112.231 217.35 118.211 216.21 120.251 210.8C120.728 209.459 120.995 208.052 121.041 206.63C121.156 204.863 121.045 203.088 120.711 201.35C120.46 199.999 119.907 198.723 119.093 197.616C118.279 196.51 117.225 195.602 116.011 194.96C110.761 192.26 104.701 193.96 99.1607 194.44C97.1607 194.62 94.3707 194.81 92.9507 193.07C92.2424 192.055 91.923 190.82 92.0507 189.59C92.131 188.089 92.3998 186.604 92.8507 185.17C93.5907 182.63 94.6206 180.17 95.1506 177.58C95.5906 175.46 95.6707 173.09 94.2107 171.33C93.371 170.402 92.3018 169.712 91.1107 169.33C89.3193 168.683 87.425 168.367 85.5207 168.4C81.5207 168.46 77.9106 170.16 74.6206 172.25C72.9106 173.33 71.2806 174.51 69.6206 175.68C69.3606 175.86 69.6206 176.3 69.8706 176.11L69.9307 176.07Z" fill="#EAE5DF"/>
<path d="M156.141 143.27C148.961 142.9 142.141 147.36 138.491 153.32C136.771 156.09 135.811 159.73 137.071 162.88C138.071 165.45 140.551 166.88 142.211 169.02C143.122 170.084 143.657 171.42 143.731 172.82C143.717 174.013 143.437 175.189 142.911 176.26C141.635 178.631 140.174 180.898 138.541 183.04C136.946 185.124 135.914 187.582 135.541 190.18C135.421 191.569 135.641 192.966 136.181 194.252C136.721 195.537 137.565 196.673 138.641 197.56C140.871 199.36 144.341 200.56 147.181 199.76C148.389 199.358 149.499 198.707 150.441 197.85C151.832 196.651 153.305 195.552 154.851 194.56C156.271 193.626 157.921 193.1 159.621 193.04C161.042 193.104 162.438 193.444 163.731 194.04C166.731 195.25 169.681 196.96 172.991 196.96C179.251 196.96 183.261 191.4 185.301 186.1C186.711 182.44 187.491 178.54 188.541 174.77C189.696 170.103 191.373 165.581 193.541 161.29C195.291 158.07 197.991 154.29 202.021 154.07C202.943 154.039 203.864 154.171 204.741 154.46C205.051 154.56 205.181 154.08 204.871 153.98C203.207 153.411 201.396 153.439 199.751 154.06C198.115 154.77 196.684 155.881 195.591 157.29C192.741 160.73 191.071 165.1 189.681 169.29C188.341 173.29 187.351 177.42 186.241 181.51C184.941 186.32 183.021 191.51 178.821 194.51C177.535 195.431 176.05 196.038 174.487 196.281C172.924 196.524 171.326 196.397 169.821 195.91C166.941 195.05 164.311 193.33 161.351 192.72C158.061 192.04 155.261 193.55 152.661 195.43C151.421 196.32 150.311 197.43 149.061 198.27C147.9 199.107 146.491 199.53 145.061 199.47C143.466 199.427 141.906 198.999 140.513 198.223C139.12 197.446 137.935 196.344 137.061 195.01C136.391 193.757 136.028 192.364 136 190.944C135.972 189.524 136.281 188.118 136.901 186.84C138.115 184.444 139.551 182.167 141.191 180.04C142.521 178.11 143.911 176.04 144.191 173.6C144.471 170.93 142.941 168.87 141.121 167.09C140.092 166.18 139.151 165.176 138.311 164.09C137.432 162.782 136.981 161.234 137.021 159.66C137.021 155.95 139.181 152.6 141.651 149.99C144.163 147.312 147.341 145.348 150.861 144.3C152.578 143.826 154.361 143.634 156.141 143.73C156.461 143.73 156.461 143.25 156.141 143.23V143.27Z" fill="#EAE5DF"/>
<path d="M192.391 248.86C192.432 245.499 192.097 242.145 191.391 238.86C190.662 235.027 189.48 231.294 187.871 227.74C185.031 221.58 179.771 215.01 172.221 215.64C168.691 215.94 166.091 218.07 163.791 220.64C161.671 222.99 159.541 225.64 156.251 226.24C153.971 226.66 151.691 225.98 149.471 225.56C147.039 225.029 144.578 224.641 142.101 224.4C139.804 224.189 137.488 224.389 135.261 224.99C132.703 225.766 130.324 227.041 128.261 228.74C126.485 229.955 125.147 231.707 124.441 233.74C123.931 235.999 124.262 238.366 125.371 240.4C126.274 242.014 127.704 243.27 129.421 243.96C131.559 244.762 133.546 245.918 135.301 247.38C136.128 248.135 136.741 249.094 137.08 250.161C137.419 251.228 137.471 252.366 137.231 253.46C136.644 255.723 135.731 257.889 134.521 259.89C132.671 263.38 130.941 267.05 131.111 271.1C131.381 277.3 136.171 281.83 141.801 283.69C147.711 285.69 154.731 285.02 159.801 281.29C161.112 280.321 162.277 279.17 163.261 277.87C164.357 276.269 165.266 274.547 165.971 272.74C167.551 269.12 169.371 265.12 172.561 262.62C175.751 260.12 180.071 260.34 183.841 261.71C185.989 262.61 188.198 263.358 190.451 263.95C192.511 264.445 194.66 264.445 196.721 263.95C198.746 263.381 200.491 262.085 201.621 260.31C201.791 260.04 201.361 259.79 201.181 260.05C200.563 261.014 199.749 261.836 198.79 262.461C197.832 263.087 196.751 263.502 195.621 263.68C193.432 263.944 191.212 263.736 189.111 263.07C186.881 262.45 184.821 261.4 182.611 260.75C180.726 260.151 178.733 259.97 176.771 260.22C173.291 260.75 170.721 263.22 168.861 266.05C167.748 267.797 166.775 269.629 165.951 271.53C165.221 273.38 164.345 275.169 163.331 276.88C159.691 282.31 153.051 284.71 146.691 284.17C140.911 283.68 134.691 280.66 132.411 275C131.321 271.965 131.321 268.645 132.411 265.61C133.741 261.33 137.001 257.73 137.741 253.27C137.919 252.338 137.897 251.379 137.676 250.457C137.455 249.535 137.041 248.67 136.461 247.92C134.945 246.193 133.029 244.864 130.881 244.05C129.191 243.3 127.461 242.59 126.341 241.05C125.646 240.067 125.153 238.957 124.889 237.783C124.624 236.609 124.594 235.395 124.801 234.21C125.281 231.88 127.081 230.21 128.901 228.79C130.967 227.144 133.35 225.939 135.901 225.25C140.681 224.08 145.621 225.25 150.341 226.18C152.291 226.726 154.328 226.889 156.341 226.66C157.847 226.345 159.25 225.658 160.421 224.66C162.881 222.66 164.571 219.91 167.121 218.03C168.534 217.018 170.175 216.37 171.898 216.144C173.621 215.917 175.374 216.118 177.001 216.73C180.215 218.031 182.937 220.313 184.781 223.25C186.88 226.443 188.485 229.936 189.541 233.61C190.656 237.159 191.393 240.816 191.741 244.52C191.876 245.969 191.926 247.425 191.891 248.88C191.891 249.2 192.381 249.2 192.391 248.88V248.86Z" fill="#EAE5DF"/>
<path d="M219.801 187.27C217.015 187.055 214.224 187.609 211.731 188.87C208.826 190.217 206.517 192.583 205.241 195.52C204.632 197.028 204.51 198.689 204.891 200.27C205.225 201.475 205.923 202.547 206.891 203.34C208.691 204.9 211.171 205.9 212.461 207.98C212.816 208.563 213.048 209.212 213.142 209.888C213.237 210.564 213.192 211.252 213.011 211.91C212.567 213.236 211.89 214.472 211.011 215.56C210.176 216.602 209.474 217.744 208.921 218.96C208.421 220.36 208.29 221.865 208.541 223.33C209.219 226.48 210.817 229.358 213.13 231.6C215.444 233.843 218.371 235.35 221.541 235.93C227.641 236.7 233.371 232.67 235.961 227.34C236.339 226.556 236.673 225.751 236.961 224.93C237.061 224.63 236.581 224.5 236.471 224.8C235.411 228.005 233.407 230.815 230.721 232.86C228.496 234.56 225.781 235.497 222.981 235.53C220.006 235.464 217.138 234.409 214.831 232.53C212.101 230.479 210.112 227.598 209.161 224.32C208.744 222.781 208.744 221.159 209.161 219.62C209.602 218.421 210.237 217.303 211.041 216.31C212.491 214.31 214.041 212.19 213.551 209.57C213.141 207.36 211.351 205.98 209.611 204.78C208.612 204.151 207.669 203.438 206.791 202.65C206.249 202.134 205.818 201.513 205.524 200.826C205.23 200.138 205.079 199.398 205.081 198.65C204.991 194.97 207.781 191.75 210.771 189.95C213.448 188.306 216.579 187.557 219.711 187.81C220.031 187.81 220.031 187.35 219.711 187.31L219.801 187.27Z" fill="#EAE5DF"/>
<path d="M182.18 155.09C182.18 155.09 161.62 152.74 165.54 175.52C169.82 200.14 186.97 233.42 186.97 233.42" stroke="#514D27" stroke-width="0.75" stroke-linecap="round" stroke-linejoin="round"/>
<path d="M228.471 208.86C228.471 208.86 219.471 234.58 190.471 240.38" stroke="#514D27" stroke-width="0.75" stroke-linecap="round" stroke-linejoin="round"/>
<path d="M141.34 150.86C140.61 160.33 136.411 166.64 130.211 165.58C124.011 164.52 121.941 155.73 123.551 146.37C125.161 137.01 129.391 132.95 135.601 134.02C138.701 134.55 144.731 138.85 145.481 142.35C146.231 145.85 142.17 140.01 141.34 150.86Z" fill="#D6986E"/>
<path d="M126.771 150.17C126.771 150.17 124.941 159.98 127.151 164.17" stroke="#AD7041" stroke-width="0.75" stroke-linecap="round" stroke-linejoin="round"/>
<path d="M133.441 151.31C133.441 151.31 132.941 158.38 136.301 163.85" stroke="#AD7041" stroke-width="0.75" stroke-linecap="round" stroke-linejoin="round"/>
<path d="M185.881 118.41C185.881 118.41 185.591 107.65 172.351 97.5898C172.351 97.5898 164.441 102.64 160.511 119.69L185.881 118.41Z" fill="#AD7041"/>
<path d="M182.411 117.52C182.411 117.52 182.211 109.97 172.911 102.9C172.911 102.9 167.361 106.45 164.601 118.42L182.411 117.52Z" fill="#F5ADA1"/>
<path d="M202.71 125.63C202.71 125.63 210.71 118.41 227.12 121.06C227.12 121.06 228.91 130.27 219.27 144.88L202.71 125.63Z" fill="#AD7041"/>
<path d="M205.761 127.52C205.761 127.52 211.361 122.46 222.891 124.32C222.891 124.32 224.151 130.78 217.381 141.03L205.761 127.52Z" fill="#F5ADA1"/>
<path d="M221.421 169.8C223.551 162.19 216.001 153.36 216.001 153.36C216.001 153.36 224.081 160.94 223.771 151.98C223.461 143.02 213.001 128.62 194.771 120.82C176.541 113.02 158.941 115.38 152.231 121.33C145.521 127.28 156.591 127.91 156.591 127.91C156.591 127.91 144.991 128.53 140.941 135.33C136.891 142.13 151.731 146.61 151.731 146.61C151.884 149.122 152.437 151.593 153.371 153.93C154.871 157.48 166.581 163.68 174.871 167.23C183.161 170.78 195.731 174.99 199.341 173.63C201.94 172.596 204.477 171.414 206.941 170.09C206.941 170.09 219.291 177.42 221.421 169.8Z" fill="#D6986E"/>
<path d="M187.54 121.68L197.61 125.99L198.12 125.13C194.818 123.775 191.306 123.004 187.74 122.85C187.631 122.851 187.525 122.888 187.439 122.955C187.353 123.022 187.291 123.115 187.263 123.22C187.234 123.325 187.241 123.437 187.282 123.538C187.323 123.639 187.397 123.724 187.49 123.78C190.09 125.37 192.58 127.12 195.15 128.78L195.4 127.85C192.97 127.63 190.59 126.95 188.15 126.85C187.75 126.85 187.45 127.43 187.8 127.7C189.25 128.84 190.23 130.44 191.96 131.22L192.21 130.29C190.634 130.282 189.069 130.029 187.57 129.54C187.11 129.36 186.69 130.07 187.08 130.38C188.29 131.32 189.25 132.58 190.68 133.23L190.93 132.3C189.761 132.286 188.591 132.353 187.43 132.5C187.333 132.504 187.238 132.536 187.158 132.592C187.078 132.648 187.015 132.727 186.979 132.817C186.942 132.908 186.932 133.007 186.95 133.104C186.968 133.2 187.013 133.289 187.08 133.36C187.76 134.19 188.21 135.11 189.24 135.59L189.36 134.68C188.383 134.942 187.372 135.057 186.36 135.02C185.72 135.02 185.72 136.02 186.36 136.02C187.464 136.065 188.567 135.937 189.63 135.64C190 135.51 190.17 134.93 189.75 134.73C188.83 134.29 188.41 133.41 187.75 132.65L187.39 133.5C188.551 133.353 189.721 133.286 190.89 133.3C190.999 133.295 191.103 133.256 191.187 133.188C191.271 133.12 191.332 133.026 191.36 132.922C191.388 132.817 191.381 132.706 191.342 132.605C191.303 132.504 191.232 132.418 191.14 132.36C189.79 131.75 188.89 130.56 187.75 129.67L187.26 130.5C188.847 131.012 190.503 131.279 192.17 131.29C192.279 131.289 192.385 131.252 192.472 131.185C192.558 131.118 192.62 131.025 192.648 130.92C192.676 130.814 192.67 130.703 192.628 130.602C192.587 130.5 192.514 130.416 192.42 130.36C190.78 129.62 189.85 128.08 188.47 127L188.11 127.85C190.55 127.93 192.93 128.61 195.36 128.85C195.88 128.85 196 128.16 195.61 127.91C193.05 126.27 190.55 124.52 187.95 122.91L187.7 123.84C191.089 123.981 194.428 124.705 197.57 125.98C198.16 126.23 198.67 125.37 198.08 125.12L188.01 120.8C187.42 120.55 186.91 121.41 187.5 121.67L187.54 121.68Z" fill="#AD7041"/>
<path d="M170.861 119.62C173.951 120.49 177.181 120.28 180.341 120.62L180.211 119.62C177.841 120.27 175.401 120.67 173.211 121.83C173.116 121.886 173.043 121.972 173.002 122.074C172.961 122.176 172.955 122.289 172.984 122.395C173.014 122.5 173.077 122.594 173.165 122.66C173.253 122.726 173.361 122.761 173.471 122.76C175.111 122.69 176.631 123.37 178.241 123.53L177.991 122.6C176.634 123.504 175.194 124.278 173.691 124.91C173.351 125.05 173.131 125.63 173.571 125.82C174.781 126.36 175.811 127.19 177.021 127.73L177.271 126.79C176.271 126.89 175.361 127.57 174.341 127.67C173.911 127.67 173.581 128.38 174.091 128.6L176.241 129.52L176.361 128.61C175.751 128.83 175.081 128.85 174.461 129.07C173.841 129.29 174.121 130.26 174.731 130.07C175.341 129.88 176.011 129.83 176.631 129.6C176.981 129.48 177.181 128.88 176.751 128.69L174.591 127.77L174.341 128.7C175.341 128.6 176.251 127.92 177.271 127.82C177.701 127.82 178.021 127.12 177.521 126.89C176.321 126.36 175.281 125.52 174.081 124.99L173.961 125.9C175.56 125.255 177.093 124.458 178.541 123.52C178.628 123.46 178.695 123.374 178.732 123.273C178.768 123.173 178.772 123.064 178.744 122.962C178.715 122.859 178.655 122.768 178.572 122.702C178.489 122.635 178.387 122.596 178.281 122.59C176.661 122.43 175.171 121.75 173.511 121.82L173.761 122.75C175.871 121.64 178.241 121.27 180.521 120.64C181.111 120.48 180.921 119.73 180.391 119.64C177.321 119.26 174.181 119.47 171.171 118.64C171.038 118.605 170.897 118.625 170.779 118.694C170.661 118.764 170.575 118.877 170.541 119.01C170.506 119.143 170.526 119.283 170.595 119.402C170.664 119.52 170.778 119.605 170.911 119.64L170.861 119.62Z" fill="#AD7041"/>
<path d="M212.711 136.52C210.031 134.92 208.011 132.52 205.621 130.52C205.534 130.436 205.42 130.387 205.299 130.381C205.179 130.374 205.06 130.412 204.966 130.486C204.871 130.56 204.806 130.666 204.783 130.785C204.76 130.903 204.78 131.026 204.841 131.13C206.11 133.128 207.159 135.257 207.971 137.48L208.811 137C207.711 135.74 206.191 135.13 204.951 134.07C204.872 133.996 204.772 133.949 204.665 133.936C204.558 133.924 204.45 133.946 204.356 134C204.263 134.054 204.19 134.137 204.147 134.236C204.105 134.335 204.095 134.445 204.121 134.55C204.411 136.198 204.856 137.815 205.451 139.38L206.071 138.77C204.851 138.26 203.531 138.09 202.321 137.59C201.801 137.37 201.571 138.09 201.831 138.42C202.461 139.23 202.581 140.33 203.221 141.15L203.821 140.36L201.671 139.44C201.575 139.383 201.464 139.359 201.354 139.372C201.243 139.385 201.141 139.434 201.062 139.512C200.983 139.59 200.932 139.692 200.917 139.802C200.902 139.912 200.925 140.024 200.981 140.12C201.251 140.72 201.691 141.22 201.981 141.82C202.271 142.42 203.101 141.89 202.841 141.31C202.581 140.73 202.131 140.21 201.841 139.61L201.151 140.3L203.311 141.22C203.415 141.28 203.538 141.301 203.656 141.278C203.774 141.255 203.88 141.19 203.954 141.095C204.029 141 204.066 140.881 204.06 140.761C204.054 140.641 204.004 140.527 203.921 140.44C203.281 139.63 203.171 138.53 202.531 137.72L202.041 138.55C203.261 139.05 204.581 139.23 205.791 139.73C205.876 139.754 205.966 139.755 206.051 139.733C206.137 139.712 206.215 139.667 206.278 139.605C206.341 139.543 206.387 139.466 206.41 139.381C206.433 139.295 206.433 139.205 206.411 139.12C205.815 137.555 205.366 135.938 205.071 134.29L204.241 134.77C205.471 135.84 207.001 136.46 208.091 137.7C208.168 137.779 208.269 137.83 208.379 137.845C208.488 137.861 208.6 137.839 208.696 137.784C208.792 137.729 208.867 137.644 208.909 137.542C208.952 137.44 208.959 137.327 208.931 137.22C208.091 134.91 207.004 132.697 205.691 130.62L204.901 131.23C207.361 133.23 209.441 135.73 212.201 137.37C212.313 137.421 212.441 137.428 212.559 137.39C212.677 137.353 212.777 137.273 212.839 137.166C212.901 137.059 212.921 136.932 212.896 136.811C212.87 136.69 212.801 136.583 212.701 136.51L212.711 136.52Z" fill="#AD7041"/>
<path d="M204.641 158.32C206.966 158.091 209.304 158.007 211.641 158.07C212.691 158.07 213.821 158.13 215.011 158.22C216.201 158.31 217.471 158.38 218.771 158.54C220.071 158.7 221.411 158.89 222.771 159.09C224.131 159.29 225.501 159.6 226.871 159.9C228.241 160.2 229.591 160.55 230.871 160.99C232.151 161.43 233.481 161.79 234.691 162.3C235.876 162.738 237.038 163.239 238.171 163.8C239.231 164.36 240.291 164.8 241.171 165.37C242.051 165.94 242.891 166.37 243.611 166.87C244.331 167.37 244.881 167.82 245.371 168.18L246.881 169.36L245.261 168.36C244.741 168.04 244.141 167.62 243.411 167.2C242.681 166.78 241.811 166.38 240.901 165.88C239.991 165.38 238.901 164.99 237.901 164.49C236.901 163.99 235.621 163.61 234.421 163.15C233.221 162.69 231.911 162.35 230.621 161.93C229.331 161.51 227.971 161.25 226.621 160.93C225.271 160.61 223.921 160.35 222.621 160.09C221.321 159.83 219.961 159.6 218.671 159.46C217.381 159.32 216.151 159.11 214.961 158.99C213.771 158.87 212.661 158.77 211.621 158.68C209.551 158.54 207.821 158.43 206.621 158.41C205.421 158.39 204.641 158.32 204.641 158.32Z" fill="white"/>
<path d="M211.34 162.7C211.34 162.7 213.84 163.25 217.47 164.47C218.38 164.76 219.34 165.15 220.38 165.52C221.42 165.89 222.51 166.27 223.6 166.75L226.99 168.22C228.15 168.71 229.3 169.27 230.44 169.85L233.83 171.57C234.97 172.11 236 172.81 237.04 173.4L240.04 175.18C241.04 175.73 241.84 176.32 242.63 176.88C244.2 177.97 245.48 178.88 246.39 179.57L247.79 180.57L246.28 179.69C245.28 179.11 243.94 178.32 242.28 177.31C241.423 176.752 240.539 176.238 239.63 175.77L236.63 174.13C235.58 173.57 234.54 172.92 233.4 172.39L230.01 170.7C228.89 170.12 227.75 169.55 226.61 169.06L223.26 167.52C222.18 167.02 221.11 166.59 220.11 166.15C219.11 165.71 218.17 165.29 217.27 164.96C216.37 164.63 215.58 164.29 214.86 163.96C214.14 163.63 213.5 163.44 212.98 163.24L211.34 162.7Z" fill="white"/>
<path d="M205.241 164.66C205.241 164.66 205.671 165.06 206.461 165.74C206.851 166.08 207.301 166.51 207.861 166.96C208.421 167.41 209.041 167.96 209.711 168.51C210.381 169.06 211.151 169.66 211.941 170.29C212.731 170.92 213.551 171.6 214.451 172.29L217.171 174.29C218.081 175.01 219.071 175.65 220.041 176.29L222.921 178.29C223.871 178.95 224.851 179.53 225.781 180.12L228.461 181.84C229.301 182.41 230.151 182.84 230.921 183.29C232.461 184.15 233.721 184.92 234.621 185.43L236.021 186.27L234.531 185.61C233.601 185.16 232.241 184.61 230.651 183.79C229.851 183.4 228.971 183 228.101 182.47L225.321 180.87C224.371 180.29 223.321 179.76 222.391 179.1L219.461 177.1C218.461 176.42 217.461 175.76 216.601 175.02L213.901 172.91C213.011 172.24 212.241 171.49 211.471 170.82C210.701 170.15 209.971 169.52 209.341 168.9C208.711 168.28 208.121 167.71 207.611 167.2C207.101 166.69 206.681 166.2 206.321 165.85C205.611 165.12 205.241 164.66 205.241 164.66Z" fill="white"/>
<path d="M163.851 140.72C163.851 140.72 163.381 140.21 162.511 139.35C161.641 138.49 160.391 137.3 158.871 135.89C158.101 135.19 157.271 134.43 156.361 133.67C155.451 132.91 154.481 132.11 153.471 131.29C152.461 130.47 151.371 129.69 150.311 128.85C149.251 128.01 148.081 127.26 146.931 126.49C145.781 125.72 144.641 124.96 143.441 124.3C142.241 123.64 141.131 122.92 139.961 122.38C138.791 121.84 137.701 121.19 136.601 120.77C135.501 120.35 134.491 119.77 133.501 119.51C132.511 119.25 131.621 118.87 130.821 118.59C130.021 118.31 129.291 118.2 128.711 118.04L126.851 117.56L128.741 117.85C129.341 117.96 130.081 118.05 130.911 118.23C131.741 118.41 132.671 118.69 133.681 118.98C134.691 119.27 135.741 119.7 136.871 120.09C138.057 120.525 139.219 121.026 140.351 121.59C141.551 122.12 142.721 122.81 143.931 123.47C145.141 124.13 146.291 124.93 147.491 125.66C148.691 126.39 149.781 127.26 150.881 128.08C151.981 128.9 153.051 129.74 154.031 130.61C155.011 131.48 155.981 132.3 156.841 133.13C157.701 133.96 158.521 134.75 159.261 135.48C160.899 137.128 162.432 138.878 163.851 140.72Z" fill="white"/>
<path d="M156.071 138.85L154.501 138.07C154.001 137.83 153.401 137.52 152.691 137.2C151.981 136.88 151.191 136.52 150.331 136.11C149.471 135.7 148.511 135.3 147.521 134.86C146.531 134.42 145.471 133.95 144.361 133.51L140.961 132.14C139.811 131.64 138.621 131.21 137.421 130.79L133.871 129.52C132.711 129.06 131.521 128.74 130.391 128.37L127.131 127.29C126.131 126.92 125.131 126.66 124.181 126.42C122.341 125.94 120.821 125.47 119.741 125.18L118.061 124.68L119.791 124.99C120.881 125.21 122.451 125.48 124.331 125.88C125.271 126.06 126.281 126.28 127.331 126.59L130.661 127.52C131.801 127.88 133.011 128.15 134.191 128.61L137.771 129.89C138.981 130.33 140.171 130.78 141.321 131.29L144.711 132.75C145.821 133.21 146.841 133.75 147.821 134.24C148.801 134.73 149.741 135.17 150.581 135.65C153.961 137.41 156.071 138.85 156.071 138.85Z" fill="white"/>
<path d="M158.831 144.63C158.831 144.63 158.241 144.68 157.211 144.68C156.691 144.68 156.061 144.68 155.341 144.68C154.621 144.68 153.801 144.68 152.911 144.59C152.021 144.5 151.071 144.43 150.051 144.35C149.031 144.27 147.961 144.21 146.871 144.02L143.481 143.51C142.321 143.35 141.161 143.08 140.001 142.84L136.551 142.08C135.411 141.84 134.321 141.46 133.241 141.16L130.181 140.24C129.181 139.96 128.301 139.6 127.471 139.29C125.811 138.66 124.471 138.08 123.471 137.71L121.971 137.08L123.541 137.52C124.541 137.82 125.951 138.21 127.641 138.75C128.481 139.01 129.381 139.32 130.381 139.54L133.461 140.31C134.531 140.58 135.631 140.9 136.761 141.14L140.201 141.86C141.341 142.11 142.491 142.39 143.641 142.56L146.981 143.15C148.071 143.36 149.131 143.47 150.131 143.63C151.131 143.79 152.071 143.94 152.951 144.03C153.831 144.12 154.641 144.22 155.351 144.31C156.061 144.4 156.691 144.44 157.201 144.5C158.241 144.59 158.831 144.63 158.831 144.63Z" fill="white"/>
<path d="M168.671 141C167.671 143.29 168.121 145.64 169.591 146.25C171.061 146.86 173.031 145.52 173.991 143.25C174.951 140.98 174.531 138.62 173.061 138C171.591 137.38 169.631 138.72 168.671 141Z" fill="#3A130E"/>
<path d="M169.591 146.25C168.121 145.64 167.711 143.25 168.671 141C168.922 140.413 169.259 139.867 169.671 139.38L173.461 144.28C172.381 145.9 170.821 146.77 169.591 146.25Z" fill="#231012"/>
<path d="M172.231 141.52C171.931 142.24 171.991 142.95 172.351 143.1C172.711 143.25 173.261 142.8 173.561 142.1C173.861 141.4 173.811 140.68 173.441 140.53C173.071 140.38 172.541 140.83 172.231 141.52Z" fill="#EFF6FE"/>
<path d="M192.911 151.39C191.911 153.68 192.371 156.03 193.841 156.65C195.311 157.27 197.281 155.91 198.241 153.65C199.201 151.39 198.781 149.01 197.311 148.39C195.841 147.77 193.871 149.11 192.911 151.39Z" fill="#3A130E"/>
<path d="M193.841 156.65C192.371 156.03 191.951 153.65 192.911 151.39C193.165 150.805 193.502 150.259 193.911 149.77L197.691 154.67C196.631 156.29 195.071 157.16 193.841 156.65Z" fill="#231012"/>
<path d="M196.481 151.94C196.181 152.65 196.231 153.36 196.601 153.51C196.971 153.66 197.511 153.21 197.811 152.51C198.111 151.81 198.051 151.08 197.691 150.93C197.331 150.78 196.781 151.22 196.481 151.94Z" fill="#EFF6FE"/>
<path d="M183.081 148.2C186.271 149.54 188.391 151.63 187.471 152.74C186.551 153.85 183.051 154.34 180.621 154.07C178.721 152.52 176.621 149.69 176.761 148.25C176.901 146.81 179.891 146.86 183.081 148.2Z" fill="#231012"/>
<path d="M173.13 151.72C173.263 152.507 173.576 153.254 174.047 153.899C174.517 154.545 175.131 155.072 175.84 155.44C178.61 156.62 180.62 154.07 180.62 154.07C180.62 154.07 180.2 157.29 182.98 158.44C183.741 158.688 184.549 158.757 185.341 158.638C186.132 158.52 186.885 158.22 187.54 157.76" stroke="#231012" stroke-linecap="round" stroke-linejoin="round"/>
<path d="M203.46 185.85C198.27 193.8 191.55 197.31 186.62 193.4C181.69 189.49 184.11 180.79 190.02 173.35C195.93 165.91 201.6 164.4 206.53 168.35C208.99 170.35 212.2 176.98 211.18 180.4C210.16 183.82 209.41 176.73 203.46 185.85Z" fill="#D6986E"/>
<path d="M191.021 178.23C191.021 178.23 184.701 185.95 184.601 190.73" stroke="#AD7041" stroke-width="0.75" stroke-linecap="round" stroke-linejoin="round"/>
<path d="M196.311 182.44C196.311 182.44 192.481 188.44 192.801 194.81" stroke="#AD7041" stroke-width="0.75" stroke-linecap="round" stroke-linejoin="round"/>
<path d="M190.021 173.35C195.941 165.91 201.601 164.4 206.531 168.35C207.493 169.206 208.301 170.221 208.921 171.35" stroke="#AD7041" stroke-width="0.75" stroke-linecap="round" stroke-linejoin="round"/>
</svg>
